<?xml version="1.0" standalone="no"?>
<!DOCTYPE svg PUBLIC "-//W3C//DTD SVG 20010904//EN"
 "http://www.w3.org/TR/2001/REC-SVG-20010904/DTD/svg10.dtd">
<svg version="1.0" xmlns="http://www.w3.org/2000/svg"
 width="500.000000pt" height="500.000000pt" viewBox="0 0 500.000000 500.000000"
 preserveAspectRatio="xMidYMid meet">

<g transform="translate(0.000000,500.000000) scale(0.100000,-0.100000)"
fill="#000000" stroke="none">
<path d="M0 2500 l0 -2500 2500 0 2500 0 0 2500 0 2500 -2500 0 -2500 0 0
-2500z m1695 839 c30 -15 62 -42 80 -68 26 -37 30 -53 34 -121 3 -66 -1 -87
-19 -126 -20 -39 -77 -95 -111 -106 -6 -2 24 -77 65 -167 42 -90 76 -168 76
-173 0 -5 -36 -8 -80 -6 l-81 3 -72 157 -72 158 -42 0 -42 0 -3 -157 -3 -158
-75 0 -75 0 -3 232 -2 232 171 3 171 3 24 28 c43 51 22 128 -39 142 -12 3 -89
6 -172 8 l-150 2 -3 59 c-5 94 -17 88 191 84 172 -3 185 -5 232 -29z m405
-298 l0 -330 43 -3 42 -3 0 -65 0 -65 -168 -3 -168 -2 3 67 3 68 43 3 42 3 0
330 0 329 80 0 80 0 0 -329z m488 293 c53 -33 87 -79 103 -137 16 -60 9 -67
-65 -67 l-64 0 -19 38 c-29 60 -112 74 -164 26 -21 -19 -26 -82 -9 -114 11
-21 60 -40 101 -40 54 0 137 -39 173 -82 46 -53 59 -96 54 -174 -3 -50 -10
-72 -34 -106 -37 -54 -105 -96 -167 -104 l-48 -7 3 73 c3 74 3 74 35 82 54 14
80 77 53 129 -14 25 -62 49 -99 49 -51 0 -135 38 -173 77 -46 48 -60 83 -60
156 0 100 62 187 158 223 63 23 164 13 222 -22z m292 -139 l0 -175 -75 0 -75
0 0 175 0 175 75 0 75 0 0 -175z m455 -225 l0 -395 -75 0 -75 0 -3 73 -3 72
-149 0 -150 0 0 -75 0 -75 -75 0 -75 0 0 150 0 150 225 0 225 0 0 243 c0 134
3 247 7 251 4 4 39 5 78 4 l70 -3 0 -395z m275 71 l0 -330 48 -3 47 -3 0 -65
0 -65 -167 -3 -168 -2 0 70 0 70 45 0 45 0 0 330 0 330 75 0 75 0 0 -329z
m-1962 -713 l3 -78 -176 0 -175 0 0 80 0 80 173 -2 172 -3 3 -77z m417 40 c79
-197 345 -889 345 -898 0 -7 -30 -10 -92 -8 l-91 3 -89 250 c-48 138 -91 257
-94 265 -3 8 -47 -104 -98 -250 l-93 -265 -92 -3 c-70 -2 -91 0 -91 10 0 11
316 838 350 916 14 32 26 27 45 -20z m677 -350 l3 -393 53 -3 52 -3 0 -80 0
-79 -200 0 -200 0 0 80 0 80 55 0 55 0 0 395 0 395 90 0 90 0 2 -392z m527 79
l216 -308 3 310 2 311 90 0 90 0 0 -475 0 -475 -89 0 -89 0 -219 313 -218 312
-3 -197 -2 -198 -90 0 -90 0 0 360 0 361 92 -3 91 -3 216 -308z m-1624 -217
c-1 -233 -6 -260 -67 -326 -58 -63 -122 -87 -246 -92 l-103 -4 3 88 3 89 88 5
c82 5 91 7 113 33 24 28 24 32 24 216 0 103 3 191 7 195 4 4 46 5 93 4 l85 -3
0 -205z"/>
</g>
</svg>
